<svg xmlns="http://www.w3.org/2000/svg" width="600" height="800" viewBox="0 0 600 800"><rect width="600" height="800" fill="#fff"/><rect x="430" width="170" height="800" fill="#32b3ec"/><circle cx="515" cy="100" r="44" fill="#93d7f5"/><rect x="455" y="180" width="120" height="16" rx="8" fill="#172033"/><rect x="455" y="220" width="120" height="3" rx="1" fill="#7acef3"/><rect x="455" y="244" width="120" height="9" rx="4" fill="#cbd5e1"/><rect x="455" y="266" width="120" height="9" rx="4" fill="#cbd5e1"/><rect x="455" y="288" width="120" height="9" rx="4" fill="#cbd5e1"/><rect x="455" y="310" width="120" height="9" rx="4" fill="#cbd5e1"/><rect x="455" y="332" width="120" height="9" rx="4" fill="#cbd5e1"/><rect x="455" y="368" width="120" height="3" rx="1" fill="#7acef3"/><rect x="40" y="210" width="360" height="10" rx="5" fill="#cbd5e1"/><rect x="40" y="236" width="320" height="10" rx="5" fill="#cbd5e1"/><rect x="40" y="262" width="340" height="10" rx="5" fill="#cbd5e1"/><rect x="40" y="288" width="300" height="10" rx="5" fill="#cbd5e1"/><rect x="40" y="314" width="360" height="10" rx="5" fill="#cbd5e1"/><rect x="40" y="340" width="310" height="10" rx="5" fill="#cbd5e1"/><rect x="40" y="366" width="330" height="10" rx="5" fill="#cbd5e1"/><rect x="40" y="392" width="305" height="10" rx="5" fill="#cbd5e1"/><rect x="40" y="418" width="360" height="10" rx="5" fill="#cbd5e1"/><rect x="40" y="444" width="315" height="10" rx="5" fill="#cbd5e1"/></svg>