<svg xmlns="http://www.w3.org/2000/svg" width="600" height="800" viewBox="0 0 600 800"><rect width="600" height="800" fill="#fff"/><rect width="26" height="800" fill="#dc2626"/><rect x="60" y="90" width="200" height="26" rx="6" fill="#dc2626"/><rect x="60" y="136" width="300" height="12" rx="6" fill="#94a3b8"/><rect x="60" y="166" width="340" height="10" rx="5" fill="#e2e8f0"/><rect x="60" y="230" width="120" height="16" rx="3" fill="#e76767"/><rect x="60" y="256" width="380" height="10" rx="5" fill="#cbd5e1"/><rect x="60" y="276" width="340" height="10" rx="5" fill="#cbd5e1"/><rect x="60" y="360" width="120" height="16" rx="3" fill="#e76767"/><rect x="60" y="386" width="380" height="10" rx="5" fill="#cbd5e1"/><rect x="60" y="406" width="340" height="10" rx="5" fill="#cbd5e1"/><rect x="60" y="490" width="120" height="16" rx="3" fill="#e76767"/><rect x="60" y="516" width="380" height="10" rx="5" fill="#cbd5e1"/><rect x="60" y="536" width="340" height="10" rx="5" fill="#cbd5e1"/><rect x="60" y="620" width="120" height="16" rx="3" fill="#e76767"/><rect x="60" y="646" width="380" height="10" rx="5" fill="#cbd5e1"/><rect x="60" y="666" width="340" height="10" rx="5" fill="#cbd5e1"/></svg>