<svg xmlns="http://www.w3.org/2000/svg" width="600" height="800" viewBox="0 0 600 800"><rect width="600" height="800" fill="#fff"/><rect width="600" height="14" y="28" rx="7" fill="#ffffff"/><rect width="480" height="14" y="52" rx="7" fill="#ddddfc"/><rect width="360" height="14" y="76" rx="7" fill="#babcf9"/><rect width="240" height="14" y="100" rx="7" fill="#989af6"/><rect x="50" y="180" width="190" height="24" rx="8" fill="#1e1b4b"/><rect x="50" y="224" width="280" height="12" rx="6" fill="#94a3b8"/><circle cx="500" cy="200" r="44" fill="#8a8cf5"/><rect x="60" y="300" width="500" height="10" rx="5" fill="#cbd5e1"/><rect x="60" y="326" width="460" height="10" rx="5" fill="#cbd5e1"/><rect x="60" y="352" width="480" height="10" rx="5" fill="#cbd5e1"/><rect x="60" y="378" width="420" height="10" rx="5" fill="#cbd5e1"/><rect x="60" y="404" width="500" height="10" rx="5" fill="#cbd5e1"/><rect x="60" y="430" width="380" height="10" rx="5" fill="#cbd5e1"/><rect x="60" y="456" width="470" height="10" rx="5" fill="#cbd5e1"/><rect x="60" y="482" width="440" height="10" rx="5" fill="#cbd5e1"/><rect x="60" y="508" width="490" height="10" rx="5" fill="#cbd5e1"/><rect x="60" y="534" width="400" height="10" rx="5" fill="#cbd5e1"/><rect x="60" y="560" width="460" height="10" rx="5" fill="#cbd5e1"/><rect x="60" y="586" width="430" height="10" rx="5" fill="#cbd5e1"/></svg>