<svg xmlns="http://www.w3.org/2000/svg" width="600" height="800" viewBox="0 0 600 800"><rect width="600" height="800" fill="#fff"/><rect x="50" y="60" width="16" height="70" fill="#dc2626"/><rect x="84" y="72" width="190" height="24" rx="8" fill="#172033"/><rect x="84" y="112" width="320" height="12" rx="6" fill="#94a3b8"/><rect x="50" y="190" width="110" height="34" rx="8" fill="#e14747"/><rect x="174" y="190" width="150" height="34" rx="8" fill="#e14747"/><rect x="338" y="190" width="90" height="34" rx="8" fill="#e14747"/><rect x="442" y="190" width="130" height="34" rx="8" fill="#e14747"/><rect x="50" y="260" width="110" height="16" rx="3" fill="#dc2626"/><rect x="50" y="286" width="380" height="10" rx="5" fill="#cbd5e1"/><rect x="50" y="306" width="340" height="10" rx="5" fill="#cbd5e1"/><rect x="50" y="350" width="130" height="34" rx="8" fill="#e14747"/><rect x="194" y="350" width="100" height="34" rx="8" fill="#e14747"/><rect x="308" y="350" width="140" height="34" rx="8" fill="#e14747"/><rect x="50" y="426" width="110" height="16" rx="3" fill="#dc2626"/><rect x="50" y="452" width="380" height="10" rx="5" fill="#cbd5e1"/><rect x="50" y="472" width="340" height="10" rx="5" fill="#cbd5e1"/><rect x="50" y="516" width="460" height="10" rx="5" fill="#cbd5e1"/><rect x="50" y="538" width="420" height="10" rx="5" fill="#cbd5e1"/></svg>