<svg xmlns="http://www.w3.org/2000/svg" width="600" height="800" viewBox="0 0 600 800"><rect width="600" height="800" fill="#fff"/><rect x="24" y="24" width="552" height="752" fill="none" stroke="#1d4ed8" stroke-width="4"/><rect x="34" y="34" width="532" height="732" fill="none" stroke="#839eea" stroke-width="2"/><rect x="50" y="90" width="180" height="24" rx="8" fill="#172033"/><rect x="50" y="132" width="280" height="12" rx="6" fill="#94a3b8"/><circle cx="500" cy="110" r="44" fill="#567ae2"/><rect x="50" y="170" width="500" height="3" fill="#1d4ed8"/><rect x="50" y="220" width="130" height="16" rx="4" fill="#172033"/><rect x="50" y="244" width="140" height="4" fill="#1d4ed8"/><rect x="50" y="264" width="480" height="10" rx="5" fill="#cbd5e1"/><rect x="50" y="286" width="440" height="10" rx="5" fill="#cbd5e1"/><rect x="50" y="350" width="130" height="16" rx="4" fill="#172033"/><rect x="50" y="374" width="140" height="4" fill="#1d4ed8"/><rect x="50" y="394" width="480" height="10" rx="5" fill="#cbd5e1"/><rect x="50" y="416" width="440" height="10" rx="5" fill="#cbd5e1"/><rect x="50" y="480" width="130" height="16" rx="4" fill="#172033"/><rect x="50" y="504" width="140" height="4" fill="#1d4ed8"/><rect x="50" y="524" width="480" height="10" rx="5" fill="#cbd5e1"/><rect x="50" y="546" width="440" height="10" rx="5" fill="#cbd5e1"/><rect x="50" y="610" width="130" height="16" rx="4" fill="#172033"/><rect x="50" y="634" width="140" height="4" fill="#1d4ed8"/><rect x="50" y="654" width="480" height="10" rx="5" fill="#cbd5e1"/><rect x="50" y="676" width="440" height="10" rx="5" fill="#cbd5e1"/></svg>