<svg xmlns="http://www.w3.org/2000/svg" width="600" height="800" viewBox="0 0 600 800"><rect width="600" height="800" fill="#fff"/><rect x="430" width="170" height="800" fill="#39b165"/><rect width="600" height="100" fill="#16a34a"/><rect x="40" y="40" width="160" height="22" rx="8" fill="#ffffff"/><circle cx="515" cy="190" r="44" fill="#96d6ae"/><rect x="455" y="260" width="120" height="16" rx="8" fill="#172033"/><rect x="455" y="300" width="120" height="3" rx="1" fill="#7fcc9b"/><rect x="455" y="324" width="120" height="9" rx="4" fill="#cbd5e1"/><rect x="455" y="346" width="120" height="9" rx="4" fill="#cbd5e1"/><rect x="455" y="368" width="120" height="9" rx="4" fill="#cbd5e1"/><rect x="455" y="390" width="120" height="9" rx="4" fill="#cbd5e1"/><rect x="455" y="412" width="120" height="9" rx="4" fill="#cbd5e1"/><rect x="455" y="448" width="120" height="3" rx="1" fill="#7fcc9b"/><rect x="40" y="210" width="360" height="10" rx="5" fill="#cbd5e1"/><rect x="40" y="236" width="320" height="10" rx="5" fill="#cbd5e1"/><rect x="40" y="262" width="340" height="10" rx="5" fill="#cbd5e1"/><rect x="40" y="288" width="300" height="10" rx="5" fill="#cbd5e1"/><rect x="40" y="314" width="360" height="10" rx="5" fill="#cbd5e1"/><rect x="40" y="340" width="310" height="10" rx="5" fill="#cbd5e1"/><rect x="40" y="366" width="330" height="10" rx="5" fill="#cbd5e1"/><rect x="40" y="392" width="305" height="10" rx="5" fill="#cbd5e1"/><rect x="40" y="418" width="360" height="10" rx="5" fill="#cbd5e1"/><rect x="40" y="444" width="315" height="10" rx="5" fill="#cbd5e1"/></svg>